Coordinates
version=1
nRows=22
nColumns=24
inDegrees=yes

Units are S.I. units (second, meters, Newtons, ...)
Angles are in degrees.

endheader
time	pelvis_tilt	pelvis_list	pelvis_rotation	pelvis_tx	pelvis_ty	pelvis_tz	hip_flexion_r	hip_adduction_r	hip_rotation_r	knee_angle_r	ankle_angle_r	subtalar_angle_r	mtp_angle_r	hip_flexion_l	hip_adduction_l	hip_rotation_l	knee_angle_l	ankle_angle_l	subtalar_angle_l	mtp_angle_l	lumbar_extension	lumbar_bending	lumbar_rotation
      0.25400000	     -7.10913019	      4.93685422	     -1.97859577	     -0.79259814	      1.02957155	      0.30914300	     34.92595122	     -2.60047249	     -0.63292433	     -6.24708235	      9.64427516	     -0.82059373	      8.73879503	    -11.25755651	      6.06262191	     -0.19904230	     -4.31758294	     16.36240149	      7.20433243	      5.01825123	    -10.58895857	     -3.43906010	     -3.76312612
      0.25816667	     -7.09760472	      4.93003012	     -1.93304197	     -0.78647709	      1.02869996	      0.30939562	     34.96883682	     -2.55200444	     -0.38373239	     -6.72416786	      9.53542556	     -1.13862314	      8.73649778	    -11.37843845	      6.02050803	     -0.25176416	     -4.85238639	     16.50063631	      7.45730114	      5.06297508	    -10.57467826	     -3.32623453	     -3.78387138
      0.26233333	     -7.07410889	      4.90303077	     -1.88236444	     -0.78030025	      1.02789122	      0.30963594	     34.98289605	     -2.48951121	     -0.15895480	     -7.23167793	      9.39383318	     -1.45926661	      8.73964422	    -11.49242479	      5.95395624	     -0.33668230	     -5.43311913	     16.64601191	      7.75632629	      5.14780931	    -10.57538372	     -3.17934794	     -3.78098182
      0.26650000	     -7.04441348	      4.87524033	     -1.82919594	     -0.77408901	      1.02713051	      0.30984948	     35.00844808	     -2.43586051	     -0.04567610	     -7.83049785	      9.28975651	     -1.59873795	      8.73944104	    -11.63393462	      5.89544628	     -0.25521320	     -5.97407123	     16.67219351	      7.76359212	      5.16636858	    -10.59934024	     -3.03315471	     -3.76043635
      0.27066667	     -7.05309538	      4.83612398	     -1.77424594	     -0.76780333	      1.02634965	      0.31014252	     35.00933665	     -2.35274375	      0.26819354	     -8.33661108	      8.96847023	     -2.16526189	      8.74965565	    -11.65824313	      5.80171153	     -0.48039189	     -6.67609792	     16.84134966	      8.28007820	      5.31849217	    -10.52408562	     -2.86317965	     -3.78827871
      0.27483333	     -7.02965882	      4.78527625	     -1.71435370	     -0.76149208	      1.02567136	      0.31039738	     34.98994880	     -2.27360070	      0.44190727	     -8.91567932	      8.68901412	     -2.51821880	      8.76968628	    -11.71860805	      5.70050216	     -0.61432806	     -7.37916555	     16.93965900	      8.61988230	      5.50675441	    -10.51164809	     -2.68563887	     -3.76223902
      0.27900000	     -6.99852911	      4.74412135	     -1.63338329	     -0.75514876	      1.02506685	      0.31061937	     34.95815312	     -2.22162847	      0.53478606	     -9.51754971	      8.38504523	     -2.77355645	      8.77812415	    -11.78912182	      5.61305978	     -0.60214987	     -8.07151587	     16.97379053	      8.74233265	      5.61493039	    -10.49735831	     -2.52854662	     -3.74135652
      0.28316667	     -6.98655103	      4.66847273	     -1.59791412	     -0.74873266	      1.02444902	      0.31095515	     34.91986117	     -2.09968424	      0.76349834	    -10.09235089	      7.98230685	     -3.27083249	      8.80651964	    -11.80582142	      5.47868557	     -0.84997542	     -8.83864283	     16.98461325	      9.17804993	      5.88682507	    -10.46469119	     -2.30093712	     -3.73707813
      0.28733333	     -6.98248704	      4.59520496	     -1.53045999	     -0.74228834	      1.02389589	      0.31122786	     34.88828399	     -2.00651302	      0.87488814	    -10.69029273	      7.55198536	     -3.64200452	      8.83770437	    -11.79368598	      5.34502988	     -1.00446314	     -9.64795078	     16.97896265	      9.48752854	      6.18970393	    -10.40860257	     -2.08595497	     -3.70855600
      0.29150000	     -6.97986413	      4.52346998	     -1.46073864	     -0.73583080	      1.02340080	      0.31151502	     34.85323429	     -1.91737757	      0.97307333	    -11.29305621	      7.08926528	     -4.01290439	      8.86793673	    -11.75596314	      5.21001456	     -1.15010480	    -10.49878803	     16.92956673	      9.76639235	      6.52531080	    -10.35356854	     -1.87372003	     -3.68203987
      0.29566667	     -6.97045979	      4.45890132	     -1.38984778	     -0.72936250	      1.02294926	      0.31179832	     34.82536087	     -1.84529331	      0.99033092	    -11.93730442	      6.64248664	     -4.24680571	      9.18388110	    -11.70144462	      5.07622904	     -1.34462272	    -11.38989309	     16.79231996	     10.08474097	      9.51625278	    -10.31485524	     -1.68745558	     -3.62319962
      0.29983333	     -6.92912871	      4.35833934	     -1.33047703	     -0.72285415	      1.02264417	      0.31210531	     34.72548410	     -1.73109191	      1.06926553	    -12.51841213	      6.08623413	     -4.66756182	      9.17189608	    -11.68040626	      4.91229749	     -1.47480390	    -12.28744686	     16.63239153	     10.24423034	      9.59890824	    -10.30529210	     -1.43039788	     -3.60293899
      0.30400000	     -6.91899196	      4.27536823	     -1.26598288	     -0.71635817	      1.02232587	      0.31244004	     34.67919813	     -1.63842290	      1.10596408	    -13.14711142	      5.55722630	     -4.99748317	      9.16066076	    -11.57223221	      4.75022220	     -1.71099799	    -13.28352770	     16.47299414	     10.58017286	      9.77806727	    -10.26149960	     -1.21145065	     -3.55473116
      0.30816667	     -6.92996467	      4.17172563	     -1.19109462	     -0.70981342	      1.02205122	      0.31274720	     34.64669059	     -1.53671811	      1.09604982	    -13.77718203	      5.05762347	     -5.30115084	      9.14608091	    -11.42264523	      4.56536950	     -1.90505572	    -14.31841512	     16.26025943	     10.81560111	      9.98609814	    -10.17816012	     -0.95207825	     -3.49838021
      0.31233333	     -6.90559305	      4.07001256	     -1.13229075	     -0.70330342	      1.02187349	      0.31310175	     34.58748195	     -1.43313135	      1.07969680	    -14.42669278	      4.54301254	     -5.58170254	      9.12433572	    -11.27601866	      4.37378364	     -2.17581625	    -15.41257629	     16.00670232	     11.14770617	     10.30181216	    -10.15469372	     -0.70910300	     -3.43323841
      0.31650000	     -6.88990069	      3.97100602	     -1.07250957	     -0.69678807	      1.02174534	      0.31346299	     34.54583452	     -1.33741767	      1.03536940	    -15.10252994	      4.07072914	     -5.82266328	      9.09541675	    -11.09424105	      4.18139083	     -2.43580228	    -16.54448380	     15.69389801	     11.43034351	     10.70661790	    -10.11244354	     -0.46530385	     -3.36708618
      0.32066667	     -6.85872711	      3.86396267	     -1.00404340	     -0.69029375	      1.02172321	      0.31384829	     34.47190734	     -1.24039903	      0.99398584	    -15.75004760	      3.62210062	     -6.02506186	      9.04533715	    -10.88231582	      3.96478041	     -2.73501937	    -17.75610648	     15.29736084	     11.75703888	     11.37763089	    -10.10220350	     -0.23838656	     -3.28870765
      0.32483333	     -6.84596346	      3.74497767	     -0.93905855	     -0.68376660	      1.02172809	      0.31419292	     34.43224864	     -1.14002069	      0.89364630	    -16.44340859	      3.25471502	     -6.16827155	      8.75806132	    -10.65177564	      3.75028135	     -2.92216001	    -18.95478581	     14.78052832	     11.79459897	     15.16751095	    -10.05310389	      0.04419200	     -3.18203713
      0.32900000	     -6.84803259	      3.62599488	     -0.87500053	     -0.67725634	      1.02176197	      0.31457506	     34.40830611	     -1.04042059	      0.78847368	    -17.13799462	      2.93612293	     -6.25640299	      8.74437108	    -10.35150385	      3.51598731	     -3.19992337	    -20.24980829	     14.29727153	     11.99060559	     15.22896934	     -9.98886497	      0.30737968	     -3.10448768
      0.33316667	     -6.82172542	      3.49701351	     -0.82191685	     -0.67077414	      1.02188814	      0.31500242	     34.35179774	     -0.92696625	      0.68841568	    -17.83071392	      2.64578146	     -6.35541665	      8.72113671	    -10.04969129	      3.25874902	     -3.52236012	    -21.59630185	     13.74970517	     12.22743760	     15.35718031	     -9.96372705	      0.57387409	     -3.00249117
      0.33733333	     -6.79940623	      3.36607705	     -0.77200895	     -0.66431682	      1.02206548	      0.31544296	     34.29568775	     -0.81235315	      0.58562174	    -18.51733753	      2.40688679	     -6.41519320	      8.69143432	     -9.71081454	      2.99483146	     -3.82592127	    -22.98992687	     13.14301480	     12.42080693	     15.52895243	     -9.93750787	      0.84361954	     -2.89033756
      0.34150000	     -6.73813979	      3.23219811	     -0.73388762	     -0.65789830	      1.02234766	      0.31594964	     34.19249127	     -0.68660654	      0.50221150	    -19.19448737	      2.22638552	     -6.51148768	      8.61164178	     -9.38264741	      2.70844707	     -4.19248564	    -24.41972424	     12.44096403	     12.70771982	     16.02861285	     -9.97362691	      1.09823921	     -2.77199495
